<svg width="39" height="40" viewBox="0 0 39 40" fill="none" xmlns="http://www.w3.org/2000/svg">
<path d="M2.03809 11.6861C5.2454 5.2529 11.903 0.841445 19.5876 0.875192C30.3624 0.922549 39.1004 9.78749 38.9991 20.562C38.962 24.5127 37.75 28.1825 35.6957 31.239C35.0134 32.2543 33.4286 31.7718 33.4286 30.5485C33.4286 27.5863 31.0272 25.1849 28.0649 25.1849H28.0163C28.0163 18.7128 22.7697 13.4662 16.2976 13.4662H3.14959C2.235 13.4661 1.62994 12.5046 2.03809 11.6861Z" fill="#FF5B00"/>
<path d="M26.3021 11.3468C26.3021 12.1526 26.1337 12.9283 25.8227 13.6538C25.4063 14.6252 24.4518 15.2621 23.3949 15.2634C23.3896 15.2634 23.3845 15.2634 23.3792 15.2634C20.1206 15.2634 17.2434 14.0063 15.5204 12.0875C13.7975 14.0063 10.9201 15.2634 7.66158 15.2634C7.65633 15.2634 7.65115 15.2634 7.6459 15.2634C6.589 15.2621 5.63453 14.6252 5.21811 13.6538C4.90706 12.9282 4.73865 12.1526 4.73865 11.3468C4.73865 10.5409 4.90698 9.76528 5.21811 9.03972C5.43834 8.52604 5.809 8.10587 6.2657 7.8238C5.6713 7.08479 5.5169 6.07158 5.87426 5.17777C6.1674 4.44473 6.5968 3.77727 7.1666 3.20739C7.73639 2.63751 8.40393 2.2082 9.13697 1.91506C9.9383 1.59462 10.8355 1.6856 11.5451 2.13609C11.7711 1.40424 12.3108 0.791143 13.0378 0.479382C13.7636 0.168337 14.5392 0 15.3451 0C16.1509 0 16.9265 0.168337 17.6521 0.479382C18.3282 0.769176 18.8422 1.31963 19.0926 1.98375C19.7505 1.66928 20.5248 1.63482 21.2257 1.91506C21.9587 2.2082 22.6262 2.63759 23.1961 3.20739C23.766 3.77719 24.1953 4.44473 24.4884 5.17777C24.8081 5.97743 24.7183 6.8726 24.2702 7.58152C24.9559 7.82499 25.5259 8.34735 25.8227 9.03972C26.1337 9.76528 26.3021 10.5409 26.3021 11.3468Z" fill="#F19B0B"/>
<path d="M6.46398 8.04371C7.9221 9.50183 9.62831 10.496 11.3372 10.9944C11.4938 11.0401 11.4862 11.2632 11.3276 11.3012C9.041 11.8491 7.08957 12.9828 5.76938 14.4743C5.54 14.2418 5.35144 13.965 5.21805 13.6539C4.907 12.9283 4.73859 12.1527 4.73859 11.3469C4.73859 10.541 4.90692 9.76536 5.21805 9.0398C5.43828 8.52612 5.80894 8.10595 6.26564 7.82388C6.32382 7.89623 6.38622 7.96595 6.45284 8.03273L6.46398 8.04371ZM15.3809 6.5489C15.4176 6.69988 15.6275 6.71166 15.6833 6.56665C16.2343 5.13447 17.1327 3.73174 18.3598 2.50476L18.3708 2.49369C18.5847 2.28039 18.8294 2.10966 19.0927 1.98383C18.8421 1.31971 18.3281 0.769335 17.6521 0.479461C16.9265 0.168337 16.1509 0 15.3451 0C14.5392 0 13.7636 0.168337 13.038 0.479382C12.727 0.612778 12.4502 0.801251 12.2176 1.03071C13.7004 2.34318 14.8295 4.27949 15.3809 6.5489ZM16.6185 10.3637C16.6144 10.3678 16.6103 10.3719 16.6063 10.3759C16.1977 10.7835 15.6869 11.0495 15.1441 11.1612C15.1489 11.1891 15.1539 11.2169 15.159 11.2446C17.9391 11.7591 21.3099 10.6327 23.8989 8.04371C23.9026 8.04005 23.9063 8.03631 23.91 8.03265C24.6564 7.2844 24.8809 6.15914 24.4885 5.17777C24.1954 4.44473 23.766 3.77727 23.1962 3.20739C22.6264 2.63751 21.9588 2.2082 21.2258 1.91506C20.9116 1.78938 20.5825 1.72698 20.2558 1.72476C20.4292 4.57064 19.1697 7.8125 16.6185 10.3637ZM25.8227 9.03972C25.6893 8.72868 25.5008 8.45186 25.2714 8.21929C23.3817 10.3542 20.1987 11.756 16.5907 11.756C16.585 11.756 16.5792 11.756 16.5735 11.756C15.9965 11.7552 15.4471 11.5822 14.9843 11.2774C14.968 11.3005 14.9519 11.3236 14.9359 11.3468C16.5379 13.6763 19.7179 15.2634 23.3793 15.2634H23.395C24.4519 15.2621 25.4064 14.6252 25.8228 13.6538C26.1338 12.9282 26.3022 12.1526 26.3022 11.3468C26.3021 10.5409 26.1337 9.76528 25.8227 9.03972ZM11.4284 2.90725C11.4287 2.64141 11.4692 2.3821 11.5452 2.13617C10.8356 1.68568 9.9384 1.5947 9.13707 1.91514C8.40403 2.20828 7.73657 2.63767 7.16669 3.20747C6.59682 3.77727 6.1675 4.44473 5.87436 5.17777C5.74869 5.49208 5.68629 5.82103 5.68406 6.14775C7.81067 6.01818 10.1585 6.68882 12.274 8.1007C12.4086 8.19056 12.5742 8.04658 12.5052 7.90021C11.8221 6.45084 11.4283 4.74662 11.4283 2.92293C11.4284 2.91768 11.4284 2.91242 11.4284 2.90725Z" fill="#F5C02C"/>
<path d="M16.9864 15.1222H13.4047C11.8662 15.1222 10.619 13.875 10.619 12.3365C10.619 10.798 11.8662 9.55078 13.4047 9.55078H16.9864C18.5249 9.55078 19.7721 10.798 19.7721 12.3365C19.7721 13.875 18.5249 15.1222 16.9864 15.1222Z" fill="#F5C02C"/>
<path d="M17.5898 15.1222H16.5153C14.9768 15.1222 13.7296 13.875 13.7296 12.3365C13.7296 10.798 14.9768 9.55078 16.5153 9.55078H17.5898C19.1283 9.55078 20.3755 10.798 20.3755 12.3365C20.3755 13.875 19.1283 15.1222 17.5898 15.1222Z" fill="#F3D373"/>
<path d="M4.26517 29.4546C4.3013 30.4364 2.99544 30.8113 2.512 29.9559C0.962106 27.2137 0.0570674 24.0587 0.00262653 20.697C0.00175102 20.6959 0.00087551 20.6947 0 20.6936V13.5303C0 12.2116 1.069 11.1426 2.38776 11.1426H6.63939C5.32071 11.1426 4.25164 12.2117 4.25164 13.5303C4.25164 13.5303 4.25339 20.6959 4.25426 20.697C4.25856 20.9629 4.25164 29.0425 4.25164 29.0425C4.25251 29.0436 4.25339 29.0448 4.25426 29.0459C4.25649 29.1825 4.26015 29.3187 4.26517 29.4546Z" fill="#FF5B00"/>
<path d="M31.0408 13.5303V28.3696C31.0408 34.6871 25.9469 39.8337 19.6295 39.8748C19.5864 39.8751 19.5432 39.8752 19.5 39.8752C12.0618 39.8752 5.59642 35.7106 2.30817 29.5859V13.5303C2.30817 12.2116 3.37716 11.1426 4.69592 11.1426H10.9395L11.4612 11.4742H19.4072L20.1105 11.1426H28.6531C29.9718 11.1426 31.0408 12.2117 31.0408 13.5303Z" fill="#FF8846"/>
<path d="M11.4612 13.9289C11.4612 14.753 10.793 15.4212 9.96884 15.4212C9.14467 15.4212 8.47649 14.753 8.47649 13.9289C8.47649 13.1047 9.14467 12.4365 9.96884 12.4365C10.793 12.4365 11.4612 13.1047 11.4612 13.9289ZM6.4867 26.4416C5.66252 26.4416 4.99435 27.1098 4.99435 27.9339C4.99435 28.7581 5.66252 29.4263 6.4867 29.4263C7.31087 29.4263 7.97904 28.7581 7.97904 27.9339C7.97904 27.1098 7.31087 26.4416 6.4867 26.4416ZM6.4867 17.258C5.66252 17.258 4.99435 17.9261 4.99435 18.7503C4.99435 19.5745 5.66252 20.2427 6.4867 20.2427C7.31087 20.2427 7.97904 19.5745 7.97904 18.7503C7.97904 17.9261 7.31087 17.258 6.4867 17.258ZM3.09465 30.9213C3.51076 31.5674 3.96403 32.1872 4.45137 32.7779C4.48106 32.6605 4.49682 32.5376 4.49682 32.411C4.4969 31.617 3.87688 30.968 3.09465 30.9213ZM3.00455 12.4365C2.18038 12.4365 1.51221 13.1047 1.51221 13.9289C1.51221 14.753 2.18038 15.4212 3.00455 15.4212C3.82873 15.4212 4.4969 14.753 4.4969 13.9289C4.4969 13.1047 3.82873 12.4365 3.00455 12.4365ZM3.00455 21.735C2.18038 21.735 1.51221 22.4032 1.51221 23.2273C1.51221 24.0515 2.18038 24.7197 3.00455 24.7197C3.82873 24.7197 4.4969 24.0515 4.4969 23.2273C4.4969 22.4031 3.82873 21.735 3.00455 21.735ZM20.4153 17.258C19.5911 17.258 18.9229 17.9261 18.9229 18.7503C18.9229 19.5745 19.5911 20.2427 20.4153 20.2427C21.2394 20.2427 21.9076 19.5745 21.9076 18.7503C21.9076 17.9261 21.2394 17.258 20.4153 17.258ZM27.3796 17.258C26.5554 17.258 25.8872 17.9261 25.8872 18.7503C25.8872 19.5745 26.5554 20.2427 27.3796 20.2427C28.2037 20.2427 28.8719 19.5745 28.8719 18.7503C28.8719 17.9261 28.2038 17.258 27.3796 17.258ZM23.8974 12.4365C23.0732 12.4365 22.4051 13.1047 22.4051 13.9289C22.4051 14.753 23.0732 15.4212 23.8974 15.4212C24.7216 15.4212 25.3898 14.753 25.3898 13.9289C25.3898 13.1047 24.7216 12.4365 23.8974 12.4365ZM23.8974 21.735C23.0732 21.735 22.4051 22.4032 22.4051 23.2273C22.4051 24.0515 23.0732 24.7197 23.8974 24.7197C24.7216 24.7197 25.3898 24.0515 25.3898 23.2273C25.3898 22.4031 24.7216 21.735 23.8974 21.735ZM16.9331 12.4365C16.109 12.4365 15.4408 13.1047 15.4408 13.9289C15.4408 14.753 16.109 15.4212 16.9331 15.4212C17.7573 15.4212 18.4255 14.753 18.4255 13.9289C18.4255 13.1047 17.7573 12.4365 16.9331 12.4365ZM13.451 17.258C12.6268 17.258 11.9586 17.9261 11.9586 18.7503C11.9586 19.5745 12.6268 20.2427 13.451 20.2427C14.2752 20.2427 14.9433 19.5745 14.9433 18.7503C14.9433 17.9261 14.2752 17.258 13.451 17.258Z" fill="white"/>
<path d="M2.53608 12.5107C2.38995 12.8199 2.30813 13.1654 2.30813 13.5301V15.2482C1.83479 14.998 1.51221 14.5007 1.51221 13.928C1.51221 13.2675 1.94137 12.7072 2.53608 12.5107ZM1.51221 23.2265C1.51221 23.7992 1.83479 24.2965 2.30813 24.5467V21.9063C1.83479 22.1565 1.51221 22.6538 1.51221 23.2265ZM3.09465 30.9205C3.12227 30.9634 3.15005 31.0061 3.17798 31.0487C3.15013 31.0061 3.12235 30.9634 3.09465 30.9205Z" fill="#FF7427"/>
<path d="M35.7368 24.6739V31.1787C32.2414 36.4218 26.2741 39.8759 19.5 39.8759C18.2486 39.8759 17.0246 39.758 15.8388 39.5327V24.6739C15.8388 23.7947 16.5515 23.082 17.4306 23.082H34.1449C35.0241 23.082 35.7368 23.7947 35.7368 24.6739Z" fill="#FF5B00"/>
<path d="M18.9394 23.082L15.8388 26.1826V24.6739C15.8388 23.7947 16.5515 23.082 17.4306 23.082H18.9394ZM27.6256 23.082L15.8388 34.8689V37.737L30.4937 23.082H27.6256ZM21.8485 23.082L15.8388 29.0917V31.9598L24.7166 23.082H21.8485ZM34.1449 23.082H33.4028L16.7951 39.6898C17.6718 39.8115 18.5671 39.8749 19.4771 39.8759L35.5056 23.8474C35.2263 23.3885 34.7214 23.082 34.1449 23.082ZM22.6372 39.6249C24.0039 39.4039 25.323 39.0408 26.5789 38.5513L35.7368 29.3933V26.5253L22.6372 39.6249Z" fill="#FFA573"/>
<path d="M22.0259 22.8487L15.8747 16.6974C15.4943 16.317 14.8775 16.317 14.497 16.6974L8.34583 22.8487C8.04728 23.1473 7.87958 23.5521 7.87958 23.9743V38.284C7.87958 39.1632 8.59224 39.8759 9.47141 39.8759H20.9003C21.7795 39.8759 22.4922 39.1632 22.4922 38.284V23.9743C22.4922 23.5521 22.3245 23.1472 22.0259 22.8487ZM15.1859 20.5561C14.5574 20.5561 14.0479 20.0467 14.0479 19.4182C14.0479 18.7898 14.5574 18.2803 15.1859 18.2803C15.8143 18.2803 16.3238 18.7898 16.3238 19.4182C16.3238 20.0467 15.8143 20.5561 15.1859 20.5561Z" fill="#FF5B00"/>
<path d="M12.0966 39.8755H9.47141C8.59224 39.8755 7.87958 39.1629 7.87958 38.2837V23.974C7.87958 23.5518 8.04728 23.1469 8.34583 22.8484L10.5048 20.6895V38.2837C10.5048 39.1629 11.2175 39.8755 12.0966 39.8755Z" fill="#F52C2C"/>
<path d="M13.1277 35.9931C13.0507 35.9931 12.9725 35.9782 12.897 35.9465C12.593 35.8188 12.45 35.469 12.5775 35.1651L16.957 24.7297C17.0847 24.4257 17.4345 24.283 17.7384 24.4102C18.0424 24.5379 18.1854 24.8877 18.0579 25.1917L13.6784 35.627C13.5825 35.8555 13.3609 35.9931 13.1277 35.9931ZM14.8216 26.7229C14.8216 25.1538 13.6858 23.8773 12.2896 23.8773C10.8934 23.8773 9.75751 25.1538 9.75751 26.7229C9.75751 28.292 10.8934 29.5686 12.2896 29.5686C13.6858 29.5686 14.8216 28.292 14.8216 26.7229ZM13.6277 26.7229C13.6277 27.6337 13.0274 28.3747 12.2896 28.3747C11.5517 28.3747 10.9514 27.6337 10.9514 26.7229C10.9514 25.8121 11.5517 25.0712 12.2896 25.0712C13.0275 25.0712 13.6277 25.8121 13.6277 26.7229ZM20.7363 33.8578C20.7363 32.2887 19.6005 31.0122 18.2043 31.0122C16.8081 31.0122 15.6722 32.2887 15.6722 33.8578C15.6722 35.4268 16.8081 36.7034 18.2043 36.7034C19.6005 36.7034 20.7363 35.4268 20.7363 33.8578ZM19.5424 33.8578C19.5424 34.7685 18.9422 35.5095 18.2043 35.5095C17.4664 35.5095 16.8661 34.7685 16.8661 33.8578C16.8661 32.9471 17.4664 32.2061 18.2043 32.2061C18.9422 32.2061 19.5424 32.947 19.5424 33.8578ZM15.7828 19.3007V11.1426H14.589V19.3007C14.589 19.6304 14.8562 19.8977 15.1859 19.8977C15.5156 19.8977 15.7828 19.6304 15.7828 19.3007Z" fill="white"/>
<path d="M15.8544 11.1426L10.679 20.9965C10.552 21.2382 10.225 21.2832 10.0375 21.0849L6.81202 17.6732C6.68293 17.5366 6.66693 17.3283 6.77374 17.1736L10.9395 11.1426H15.8544Z" fill="#F5C02C"/>
<path d="M20.1104 11.1426L24.2675 17.1736C24.3741 17.3283 24.3581 17.5364 24.2291 17.6729L21.0037 21.0846C20.8161 21.283 20.4889 21.2378 20.362 20.996L15.1956 11.1426H20.1104Z" fill="#F1CA50"/>
<path d="M36.9306 18.8339V20.0296C36.9306 20.1208 36.8543 20.193 36.7632 20.1891C34.8115 20.1037 33.2391 18.5313 33.1537 16.5795C33.1497 16.4885 33.222 16.4121 33.3131 16.4121H34.5088C34.5924 16.4121 34.6616 16.477 34.667 16.5604C34.7093 17.2114 35.0274 17.7885 35.5054 18.1755C35.8594 18.4622 36.301 18.6446 36.7832 18.6757C36.8663 18.6811 36.9306 18.7506 36.9306 18.8339Z" fill="white"/>
<path d="M33.1463 5.14207C33.0609 7.0939 31.4886 8.66616 29.5368 8.75164C29.4458 8.75562 29.3694 8.68327 29.3694 8.59222V7.39651C29.3694 7.31278 29.4344 7.24369 29.518 7.2382C30.0844 7.20143 30.5947 6.95581 30.9727 6.57783C31.3507 6.19985 31.5962 5.6895 31.633 5.12321C31.6384 5.03964 31.7076 4.97461 31.7913 4.97461H32.987C33.078 4.97469 33.1503 5.0511 33.1463 5.14207Z" fill="#FD4343"/>
<path d="M29.2457 14.3668C28.1173 15.3746 26.4005 15.3746 25.272 14.3668C25.2032 14.3054 25.1993 14.1989 25.2644 14.1338L25.885 13.5132C25.9438 13.4545 26.0373 13.4514 26.1006 13.5052C26.4021 13.7613 26.7692 13.9015 27.1424 13.9256C27.5934 13.9547 28.0533 13.8145 28.4176 13.5049C28.4807 13.4512 28.5742 13.4546 28.6328 13.5131L29.2533 14.1337C29.3185 14.1989 29.3145 14.3053 29.2457 14.3668Z" fill="#FD3D96"/>
</svg>
