<svg xmlns="http://www.w3.org/2000/svg" xmlns:xlink="http://www.w3.org/1999/xlink" width="512" zoomAndPan="magnify" viewBox="0 0 384 383.999986" height="512" preserveAspectRatio="xMidYMid meet" version="1.0"><defs><clipPath id="e8a836e824"><path d="M 205 49.167969 L 244 49.167969 L 244 57 L 205 57 Z M 205 49.167969 " clip-rule="nonzero"/></clipPath><clipPath id="93b18afc56"><path d="M 162 49.167969 L 202 49.167969 L 202 55 L 162 55 Z M 162 49.167969 " clip-rule="nonzero"/></clipPath><clipPath id="335fb01c38"><path d="M 15.660156 185 L 22 185 L 22 225 L 15.660156 225 Z M 15.660156 185 " clip-rule="nonzero"/></clipPath><clipPath id="cfa41157d1"><path d="M 15.660156 212 L 19 212 L 19 251 L 15.660156 251 Z M 15.660156 212 " clip-rule="nonzero"/></clipPath><clipPath id="31e650ed82"><path d="M 49 314 L 74 314 L 74 334.917969 L 49 334.917969 Z M 49 314 " clip-rule="nonzero"/></clipPath><clipPath id="97e64e68ba"><path d="M 365 162 L 368.160156 162 L 368.160156 172 L 365 172 Z M 365 162 " clip-rule="nonzero"/></clipPath></defs><path fill="#ff5b00" d="M 119.371094 67.992188 C 119.679688 66.992188 120.136719 66.363281 120.734375 66.082031 L 128.765625 62.582031 C 136.308594 59.855469 146.46875 56.480469 154.1875 54.308594 L 157.980469 53.433594 C 157.34375 53.683594 156.859375 54.320312 156.542969 55.359375 C 150.753906 57.367188 143.054688 60.117188 137.410156 62.507812 C 131.960938 64.015625 124.699219 66.089844 119.371094 67.992188 " fill-opacity="1" fill-rule="nonzero"/><path fill="#ff5b00" d="M 81.753906 91.429688 C 81.980469 90.6875 82.296875 90.152344 82.699219 89.824219 L 82.832031 89.714844 C 98.015625 78.382812 98.308594 78.164062 106.84375 73.265625 L 115.269531 68.734375 C 114.695312 69.019531 114.257812 69.648438 113.960938 70.609375 C 108.738281 73.941406 101.796875 78.441406 96.804688 82.101562 C 92.214844 84.78125 86.121094 88.410156 81.753906 91.429688 " fill-opacity="1" fill-rule="nonzero"/><path fill="#ff5b00" d="M 361.613281 154.121094 L 361.773438 154.226562 L 365.289062 162.703125 L 361.613281 154.121094 " fill-opacity="1" fill-rule="nonzero"/><path fill="#ff5b00" d="M 350.179688 134.195312 C 350.238281 134.007812 350.328125 133.890625 350.441406 133.847656 C 353.433594 138.898438 357.371094 145.667969 360.058594 150.886719 L 365.289062 162.703125 L 359.851562 151.164062 C 357.035156 146.027344 353.234375 139.195312 350.179688 134.195312 " fill-opacity="1" fill-rule="nonzero"/><path fill="#ff5b00" d="M 322.125 100.699219 C 322.257812 100.269531 322.457031 100.003906 322.722656 99.902344 C 326.785156 103.945312 332.167969 109.378906 335.988281 113.648438 C 339.429688 118.167969 343.988281 124.222656 347.203125 128.90625 C 347.070312 128.957031 346.964844 129.09375 346.894531 129.3125 C 343.449219 124.902344 338.804688 119.050781 335.082031 114.863281 C 331.261719 110.554688 326.136719 104.832031 322.125 100.699219 " fill-opacity="1" fill-rule="nonzero"/><path fill="#ff5b00" d="M 287.546875 75.21875 C 287.746094 74.578125 288.046875 74.183594 288.441406 74.027344 C 293.34375 76.972656 299.851562 80.941406 304.574219 84.167969 C 308.820312 87.632812 314.453125 92.300781 318.507812 95.984375 C 318.226562 96.097656 318.011719 96.378906 317.871094 96.835938 C 313.496094 93.554688 307.625 89.214844 303.039062 86.230469 C 298.445312 82.851562 292.296875 78.378906 287.546875 75.21875 " fill-opacity="1" fill-rule="nonzero"/><path fill="#ff5b00" d="M 248.210938 58.488281 C 248.464844 57.667969 248.84375 57.164062 249.351562 56.964844 C 254.847656 58.714844 262.171875 61.101562 267.558594 63.175781 C 272.386719 65.5 278.804688 68.644531 283.492188 71.238281 C 283.078125 71.402344 282.769531 71.8125 282.5625 72.480469 C 277.484375 70.40625 270.691406 67.691406 265.488281 65.960938 C 260.347656 63.625 253.46875 60.550781 248.210938 58.488281 " fill-opacity="1" fill-rule="nonzero"/><g clip-path="url(#e8a836e824)"><path fill="#ff5b00" d="M 205.882812 51.226562 C 206.175781 50.273438 206.617188 49.6875 207.207031 49.460938 C 212.90625 49.914062 220.511719 50.546875 226.175781 51.34375 L 226.957031 51.46875 C 232.0625 52.539062 238.871094 54.015625 243.894531 55.40625 C 243.378906 55.605469 242.988281 56.125 242.730469 56.964844 C 237.183594 56.171875 229.773438 55.183594 224.183594 54.773438 C 218.71875 53.597656 211.410156 52.078125 205.882812 51.226562 " fill-opacity="1" fill-rule="nonzero"/></g><g clip-path="url(#93b18afc56)"><path fill="#ff5b00" d="M 162.320312 54.164062 C 162.636719 53.132812 163.121094 52.496094 163.753906 52.25 L 171.261719 50.957031 C 175.632812 50.496094 181.445312 49.710938 185.828125 49.425781 L 191.199219 49.160156 L 201.476562 49.222656 C 200.882812 49.453125 200.433594 50.046875 200.136719 51.015625 C 194.351562 51.585938 186.636719 52.417969 180.90625 53.386719 C 175.328125 53.488281 167.882812 53.683594 162.320312 54.164062 " fill-opacity="1" fill-rule="nonzero"/></g><path fill="#ff5b00" d="M 51.886719 122.296875 C 52.027344 121.84375 52.203125 121.476562 52.410156 121.195312 C 55.3125 117.652344 59.074219 112.832031 62.125 109.414062 C 66.839844 104.554688 73.207031 98.140625 78.214844 93.589844 C 77.839844 93.914062 77.542969 94.429688 77.328125 95.136719 C 73.089844 99.453125 67.480469 105.257812 63.511719 109.824219 C 59.925781 113.472656 55.191406 118.390625 51.886719 122.296875 " fill-opacity="1" fill-rule="nonzero"/><path fill="#ff5b00" d="M 361.449219 154.695312 C 361.433594 154.566406 361.425781 154.460938 361.429688 154.375 L 365.289062 162.703125 L 361.449219 154.695312 " fill-opacity="1" fill-rule="nonzero"/><path fill="#ff5b00" d="M 337.382812 119.617188 C 337.300781 118.890625 337.269531 118.28125 337.289062 117.792969 C 340.84375 122.082031 345.542969 127.84375 348.8125 132.347656 C 351.867188 137.328125 355.902344 143.996094 358.71875 149.109375 C 358.710938 149.25 358.722656 149.425781 358.746094 149.636719 C 355.910156 145.097656 352.082031 139.0625 348.9375 134.730469 C 345.539062 130.144531 339.585938 124.882812 337.382812 119.617188 " fill-opacity="1" fill-rule="nonzero"/><path fill="#ff5b00" d="M 305.894531 91.96875 C 305.753906 90.695312 305.699219 89.636719 305.734375 88.789062 C 310.183594 91.890625 316.082031 96.078125 320.3125 99.46875 C 324.328125 103.617188 329.660156 109.175781 333.488281 113.492188 C 333.464844 114.03125 333.5 114.699219 333.589844 115.503906 C 329.773438 112.164062 324.640625 107.746094 320.582031 104.707031 C 316.230469 100.824219 308.679688 97.09375 305.894531 91.96875 " fill-opacity="1" fill-rule="nonzero"/><path fill="#ff5b00" d="M 268.75 72.398438 C 268.554688 70.664062 268.484375 69.214844 268.53125 68.054688 C 273.632812 69.902344 280.425781 72.429688 285.390625 74.625 C 290.148438 77.824219 296.472656 82.128906 301.085938 85.542969 C 301.046875 86.4375 301.101562 87.550781 301.253906 88.890625 C 296.667969 86.808594 290.523438 84.082031 285.789062 82.367188 C 280.722656 79.308594 273.941406 75.253906 268.75 72.398438 " fill-opacity="1" fill-rule="nonzero"/><path fill="#ff5b00" d="M 227.714844 61.574219 C 227.480469 59.464844 227.394531 57.710938 227.453125 56.304688 C 232.972656 56.839844 240.339844 57.617188 245.808594 58.53125 C 251.085938 60.667969 258.105469 63.566406 263.265625 65.960938 C 263.214844 67.160156 263.289062 68.652344 263.492188 70.445312 C 258.359375 69.671875 251.492188 68.710938 246.316406 68.339844 C 240.769531 66.222656 233.355469 63.441406 227.714844 61.574219 " fill-opacity="1" fill-rule="nonzero"/><path fill="#ff5b00" d="M 184.554688 60.152344 C 184.289062 57.789062 184.1875 55.820312 184.253906 54.242188 C 189.964844 53.410156 197.589844 52.351562 203.34375 51.910156 C 208.902344 52.863281 216.308594 54.191406 221.800781 55.460938 C 221.742188 56.894531 221.832031 58.683594 222.074219 60.832031 C 216.613281 61.417969 209.332031 62.269531 203.929688 63.257812 C 198.132812 62.21875 190.394531 60.878906 184.554688 60.152344 " fill-opacity="1" fill-rule="nonzero"/><path fill="#ff5b00" d="M 141.023438 68.785156 C 140.742188 66.300781 140.636719 64.230469 140.707031 62.570312 C 146.367188 60.316406 153.945312 57.359375 159.75 55.488281 C 165.351562 55.132812 172.839844 54.71875 178.457031 54.738281 C 178.386719 56.328125 178.488281 58.316406 178.757812 60.703125 C 173.195312 62.683594 165.796875 65.394531 160.382812 67.746094 C 154.566406 67.929688 146.8125 68.226562 141.023438 68.785156 " fill-opacity="1" fill-rule="nonzero"/><path fill="#ff5b00" d="M 99.96875 87.554688 C 99.691406 85.09375 99.589844 83.050781 99.660156 81.40625 C 104.757812 77.84375 111.609375 73.140625 116.933594 69.914062 C 122.3125 68.152344 129.507812 65.863281 134.996094 64.496094 C 134.925781 66.160156 135.03125 68.234375 135.3125 70.722656 C 129.914062 74.097656 122.75 78.660156 117.578125 82.367188 C 112.257812 83.792969 105.171875 85.753906 99.96875 87.554688 " fill-opacity="1" fill-rule="nonzero"/><path fill="#ff5b00" d="M 66.046875 114.191406 C 65.789062 111.90625 65.695312 110.003906 65.761719 108.476562 C 69.855469 103.972656 75.363281 98.007812 79.722656 93.761719 C 84.148438 90.882812 90.085938 87.097656 94.71875 84.570312 C 94.648438 86.199219 94.75 88.230469 95.027344 90.675781 C 90.53125 95.082031 84.574219 101.003906 80.335938 105.65625 C 75.980469 108.097656 70.195312 111.40625 66.046875 114.191406 " fill-opacity="1" fill-rule="nonzero"/><path fill="#ff5b00" d="M 40.246094 146.945312 C 40.019531 144.957031 39.9375 143.300781 39.996094 141.972656 C 42.992188 136.789062 47.035156 129.902344 50.320312 124.894531 C 53.683594 121.113281 58.214844 116.105469 61.855469 112.589844 C 61.792969 114.09375 61.886719 115.972656 62.140625 118.226562 C 58.667969 123.367188 54.078125 130.253906 50.871094 135.5625 C 47.582031 138.878906 43.238281 143.359375 40.246094 146.945312 " fill-opacity="1" fill-rule="nonzero"/><path fill="#ff5b00" d="M 23.285156 184.128906 C 23.105469 182.542969 23.039062 181.226562 23.082031 180.171875 C 24.886719 174.558594 27.34375 167.085938 29.449219 161.578125 C 31.671875 157.09375 34.6875 151.125 37.226562 146.808594 C 37.171875 148.101562 37.253906 149.71875 37.472656 151.65625 C 35.109375 157.253906 32 164.742188 29.90625 170.441406 C 27.800781 174.488281 25.050781 179.921875 23.285156 184.128906 " fill-opacity="1" fill-rule="nonzero"/><g clip-path="url(#335fb01c38)"><path fill="#ff5b00" d="M 15.878906 224.074219 C 15.757812 222.988281 15.710938 222.082031 15.742188 221.359375 L 15.855469 219.457031 L 16.621094 210.816406 L 18.195312 199.886719 C 19.140625 195.558594 20.355469 189.769531 21.542969 185.5 C 21.5 186.515625 21.566406 187.78125 21.734375 189.304688 C 20.570312 195.09375 19.054688 202.820312 18.164062 208.65625 C 17.359375 213.265625 16.347656 219.421875 15.878906 224.074219 " fill-opacity="1" fill-rule="nonzero"/></g><path fill="#ff5b00" d="M 350.707031 138.792969 C 350.683594 138.695312 350.664062 138.597656 350.640625 138.503906 C 350.507812 137.917969 350.402344 137.386719 350.316406 136.914062 C 353.292969 141.3125 357.214844 147.21875 359.882812 151.808594 L 365.289062 162.703125 L 360.191406 153.304688 C 357.417969 148.90625 352.820312 143.546875 350.707031 138.792969 " fill-opacity="1" fill-rule="nonzero"/><path fill="#ff5b00" d="M 323.332031 111.257812 C 323.277344 111.035156 323.226562 110.8125 323.175781 110.597656 C 322.875 109.25 322.628906 108.035156 322.4375 106.949219 C 326.359375 110.066406 331.550781 114.285156 335.21875 117.699219 C 338.835938 122.09375 343.628906 127.980469 347.058594 132.523438 C 347.15625 133.082031 347.28125 133.707031 347.4375 134.398438 C 347.464844 134.507812 347.488281 134.625 347.515625 134.738281 C 344.332031 131.488281 340.035156 127.1875 336.578125 124.230469 C 332.648438 120.292969 326.109375 116.074219 323.332031 111.257812 " fill-opacity="1" fill-rule="nonzero"/><path fill="#ff5b00" d="M 289.351562 91.03125 C 289.273438 90.699219 289.195312 90.367188 289.125 90.039062 C 288.667969 88.027344 288.300781 86.207031 288.011719 84.578125 C 292.644531 86.382812 298.804688 88.855469 303.273438 91.027344 C 307.804688 94.714844 313.820312 99.667969 318.203125 103.527344 C 318.410156 104.691406 318.671875 105.992188 319 107.433594 C 319.050781 107.664062 319.105469 107.902344 319.160156 108.140625 C 315.144531 106.191406 309.75 103.652344 305.566406 102.089844 C 300.738281 98.722656 292.726562 95.855469 289.351562 91.03125 " fill-opacity="1" fill-rule="nonzero"/><path fill="#ff5b00" d="M 250.511719 78.644531 C 250.414062 78.21875 250.316406 77.796875 250.222656 77.382812 C 249.640625 74.8125 249.167969 72.492188 248.804688 70.417969 C 253.917969 70.878906 260.738281 71.566406 265.800781 72.433594 C 271.015625 75.300781 277.949219 79.152344 283.046875 82.210938 C 283.34375 83.90625 283.730469 85.796875 284.203125 87.890625 C 284.277344 88.230469 284.359375 88.574219 284.4375 88.921875 C 279.792969 88.3125 273.582031 87.5625 268.898438 87.363281 C 263.410156 84.6875 256.078125 81.148438 250.511719 78.644531 " fill-opacity="1" fill-rule="nonzero"/><path fill="#ff5b00" d="M 208.550781 74.636719 C 208.4375 74.140625 208.324219 73.652344 208.21875 73.167969 C 207.542969 70.1875 206.996094 67.492188 206.570312 65.085938 C 211.949219 64.1875 219.136719 63.058594 224.5625 62.570312 C 230.226562 64.46875 237.765625 67.042969 243.339844 69.1875 C 243.710938 71.316406 244.191406 73.691406 244.789062 76.324219 C 244.882812 76.75 244.984375 77.183594 245.085938 77.617188 C 240.027344 78.359375 233.28125 79.414062 228.292969 80.539062 C 222.394531 78.695312 214.515625 76.269531 208.550781 74.636719 " fill-opacity="1" fill-rule="nonzero"/><path fill="#ff5b00" d="M 165.21875 79.542969 C 165.089844 79.007812 164.96875 78.476562 164.851562 77.953125 C 164.121094 74.71875 163.527344 71.796875 163.066406 69.183594 C 168.496094 66.925781 175.761719 63.964844 181.328125 62.078125 C 187.195312 62.867188 195.015625 63.976562 200.835938 65.074219 C 201.261719 67.515625 201.820312 70.25 202.503906 73.273438 C 202.613281 73.765625 202.730469 74.261719 202.84375 74.761719 C 197.585938 76.851562 190.597656 79.699219 185.484375 82.117188 C 179.417969 81.25 171.316406 80.136719 165.21875 79.542969 " fill-opacity="1" fill-rule="nonzero"/><path fill="#ff5b00" d="M 122.324219 93.859375 C 122.195312 93.3125 122.074219 92.773438 121.953125 92.238281 C 121.207031 88.945312 120.601562 85.96875 120.132812 83.300781 C 125.375 79.679688 132.402344 74.898438 137.855469 71.605469 C 143.675781 71.136719 151.453125 70.570312 157.289062 70.472656 C 157.75 73.101562 158.347656 76.039062 159.085938 79.292969 C 159.203125 79.820312 159.328125 80.351562 159.453125 80.894531 C 154.214844 84.300781 147.257812 88.898438 142.207031 92.582031 C 136.238281 92.855469 128.273438 93.265625 122.324219 93.859375 " fill-opacity="1" fill-rule="nonzero"/><path fill="#ff5b00" d="M 84.578125 116.222656 C 84.457031 115.699219 84.335938 115.183594 84.222656 114.671875 C 83.507812 111.511719 82.929688 108.65625 82.480469 106.105469 C 86.816406 101.503906 92.644531 95.402344 97.238281 91.054688 C 102.441406 89.375 109.410156 87.199219 114.722656 85.890625 C 115.1875 88.546875 115.792969 91.519531 116.535156 94.808594 C 116.65625 95.339844 116.777344 95.878906 116.90625 96.421875 C 112.210938 100.925781 105.984375 106.972656 101.523438 111.703125 C 96.410156 112.945312 89.597656 114.648438 84.578125 116.222656 " fill-opacity="1" fill-rule="nonzero"/><path fill="#ff5b00" d="M 54.433594 144.613281 C 54.324219 144.140625 54.214844 143.675781 54.113281 143.214844 C 53.46875 140.371094 52.949219 137.800781 52.542969 135.503906 C 55.863281 130.226562 60.332031 123.214844 63.914062 118.113281 C 68.078125 115.457031 73.679688 111.96875 78.046875 109.660156 C 78.492188 112.1875 79.066406 115.011719 79.773438 118.140625 C 79.886719 118.644531 80.003906 119.160156 80.128906 119.675781 C 76.375 124.886719 71.40625 131.859375 67.878906 137.222656 C 63.785156 139.324219 58.339844 142.175781 54.433594 144.613281 " fill-opacity="1" fill-rule="nonzero"/><path fill="#ff5b00" d="M 32.625 177.476562 C 32.535156 177.082031 32.445312 176.695312 32.359375 176.308594 C 31.820312 173.9375 31.386719 171.792969 31.050781 169.875 C 33.265625 164.195312 36.269531 156.632812 38.75 151.058594 C 41.777344 147.589844 45.871094 143.003906 49.1875 139.816406 C 49.585938 142.070312 50.09375 144.589844 50.726562 147.378906 C 50.828125 147.832031 50.933594 148.289062 51.042969 148.75 C 48.304688 154.363281 44.695312 161.867188 42.183594 167.585938 C 39.214844 170.453125 35.296875 174.332031 32.625 177.476562 " fill-opacity="1" fill-rule="nonzero"/><path fill="#ff5b00" d="M 19.90625 213.265625 C 19.839844 212.972656 19.773438 212.683594 19.707031 212.394531 C 19.308594 210.621094 18.980469 209.023438 18.730469 207.585938 C 19.761719 201.765625 21.175781 194.003906 22.476562 188.238281 C 24.277344 184.128906 26.730469 178.664062 28.871094 174.722656 C 29.199219 176.582031 29.621094 178.660156 30.140625 180.960938 C 30.222656 181.335938 30.3125 181.710938 30.398438 182.09375 C 28.757812 187.828125 26.601562 195.484375 25.1875 201.28125 C 23.476562 204.816406 21.253906 209.574219 19.90625 213.265625 " fill-opacity="1" fill-rule="nonzero"/><g clip-path="url(#cfa41157d1)"><path fill="#ff5b00" d="M 17.023438 250.429688 C 16.980469 250.253906 16.941406 250.078125 16.898438 249.90625 C 16.65625 248.839844 16.464844 247.875 16.3125 247.015625 C 16.058594 241.3125 15.773438 233.703125 15.816406 227.996094 C 16.300781 223.410156 16.992188 217.292969 17.824219 212.753906 C 18.0625 214.117188 18.371094 215.636719 18.753906 217.324219 C 18.816406 217.59375 18.878906 217.871094 18.945312 218.148438 C 18.464844 223.742188 17.867188 231.203125 17.640625 236.8125 C 17.332031 240.890625 16.980469 246.339844 17.023438 250.429688 " fill-opacity="1" fill-rule="nonzero"/></g><path fill="#ff5b00" d="M 361.925781 156.75 C 361.851562 156.496094 361.785156 156.257812 361.726562 156.03125 L 365.289062 162.703125 L 361.925781 156.75 " fill-opacity="1" fill-rule="nonzero"/><path fill="#ff5b00" d="M 340.109375 131.308594 C 339.6875 129.871094 339.304688 128.507812 338.964844 127.226562 C 342.242188 130.261719 346.566406 134.378906 349.558594 137.695312 C 352.519531 141.890625 356.441406 147.507812 359.203125 151.832031 C 359.300781 152.203125 359.410156 152.597656 359.53125 153.015625 C 357.089844 149.925781 353.789062 145.824219 351.042969 143.003906 C 347.808594 139.453125 342.542969 135.453125 340.109375 131.308594 " fill-opacity="1" fill-rule="nonzero"/><path fill="#ff5b00" d="M 310.652344 112.347656 C 309.914062 109.839844 309.25 107.460938 308.660156 105.226562 C 312.703125 106.894531 318.078125 109.191406 321.945312 111.238281 C 326.007812 114.988281 331.40625 120.011719 335.339844 123.902344 C 335.714844 125.316406 336.132812 126.824219 336.601562 128.410156 C 333.25 126.628906 328.738281 124.304688 325.207031 122.921875 C 320.871094 119.710938 313.800781 116.734375 310.652344 112.347656 " fill-opacity="1" fill-rule="nonzero"/><path fill="#ff5b00" d="M 275.246094 100.230469 C 274.238281 96.804688 273.328125 93.554688 272.527344 90.507812 C 277.121094 90.820312 283.253906 91.304688 287.800781 92.03125 C 292.742188 95.226562 299.316406 99.507812 304.164062 102.84375 C 304.78125 105.191406 305.480469 107.699219 306.257812 110.335938 C 302.183594 109.886719 296.730469 109.351562 292.632812 109.308594 C 287.4375 106.546875 280.5 102.882812 275.246094 100.230469 " fill-opacity="1" fill-rule="nonzero"/><path fill="#ff5b00" d="M 235.59375 95.320312 C 234.371094 91.171875 233.269531 87.226562 232.292969 83.527344 C 237.242188 82.515625 243.859375 81.214844 248.867188 80.585938 C 254.449219 83.089844 261.878906 86.457031 267.386719 89.125 C 268.21875 92.273438 269.152344 95.625 270.195312 99.160156 C 265.605469 100.027344 259.492188 101.25 254.988281 102.484375 C 249.1875 100.285156 241.441406 97.382812 235.59375 95.320312 " fill-opacity="1" fill-rule="nonzero"/><path fill="#ff5b00" d="M 150.308594 108.578125 C 148.867188 103.679688 147.566406 99.03125 146.417969 94.671875 C 151.5 91.089844 158.304688 86.351562 163.570312 83.046875 C 169.691406 83.710938 177.851562 84.640625 183.941406 85.566406 C 185.046875 89.757812 186.292969 94.21875 187.679688 98.921875 C 182.679688 102.285156 176.042969 106.8125 171.214844 110.410156 C 164.949219 109.773438 156.589844 108.964844 150.308594 108.578125 " fill-opacity="1" fill-rule="nonzero"/><path fill="#ff5b00" d="M 109.15625 126.910156 C 107.730469 122.066406 106.441406 117.472656 105.304688 113.160156 C 109.878906 108.503906 116.015625 102.332031 120.816406 97.914062 C 126.777344 97.429688 134.738281 96.835938 140.71875 96.664062 C 141.871094 101.03125 143.171875 105.691406 144.617188 110.597656 C 139.738281 115.054688 133.261719 121.039062 128.582031 125.710938 C 122.75 125.984375 114.96875 126.382812 109.15625 126.910156 " fill-opacity="1" fill-rule="nonzero"/><path fill="#ff5b00" d="M 74.59375 150.800781 C 73.265625 146.296875 72.070312 142.019531 71.015625 138.011719 C 74.660156 132.703125 79.5625 125.652344 83.429688 120.507812 C 88.472656 119.082031 95.210938 117.234375 100.332031 116.125 C 101.460938 120.410156 102.742188 124.980469 104.15625 129.796875 C 100.101562 134.925781 94.71875 141.789062 90.851562 147.066406 C 85.953125 148.082031 79.417969 149.484375 74.59375 150.800781 " fill-opacity="1" fill-rule="nonzero"/><path fill="#ff5b00" d="M 47.675781 178.785156 C 46.523438 174.863281 45.484375 171.148438 44.566406 167.65625 C 47.214844 161.988281 50.78125 154.445312 53.648438 148.882812 C 57.597656 146.613281 62.910156 143.640625 67.035156 141.699219 C 68.074219 145.65625 69.257812 149.871094 70.5625 154.3125 C 67.421875 159.792969 63.261719 167.117188 60.300781 172.695312 C 56.460938 174.410156 51.351562 176.746094 47.675781 178.785156 " fill-opacity="1" fill-rule="nonzero"/><path fill="#ff5b00" d="M 29.199219 209.472656 C 28.28125 206.355469 27.453125 203.394531 26.722656 200.617188 C 28.289062 194.859375 30.421875 187.195312 32.210938 181.503906 C 34.949219 178.515625 38.664062 174.570312 41.683594 171.871094 C 42.582031 175.277344 43.597656 178.90625 44.722656 182.730469 C 42.566406 188.273438 39.71875 195.675781 37.738281 201.285156 C 35.082031 203.640625 31.570312 206.828125 29.199219 209.472656 " fill-opacity="1" fill-rule="nonzero"/><path fill="#ff5b00" d="M 19.945312 241.496094 C 19.3125 239.351562 18.742188 237.320312 18.246094 235.410156 C 18.648438 229.835938 19.230469 222.402344 19.871094 216.855469 C 21.292969 213.289062 23.253906 208.550781 25.039062 205.160156 C 25.742188 207.832031 26.542969 210.675781 27.421875 213.675781 C 26.320312 219.011719 24.878906 226.136719 23.972656 231.511719 C 22.628906 234.449219 20.902344 238.414062 19.945312 241.496094 " fill-opacity="1" fill-rule="nonzero"/><path fill="#ff5b00" d="M 20.710938 273.480469 C 20.40625 272.453125 20.132812 271.476562 19.894531 270.558594 C 19.039062 265.429688 17.953125 258.566406 17.382812 253.398438 C 17.40625 249.402344 17.476562 244.0625 17.863281 240.085938 C 18.332031 241.871094 18.863281 243.773438 19.457031 245.777344 C 19.476562 250.660156 19.539062 257.175781 19.804688 262.050781 C 19.949219 265.488281 20.214844 270.078125 20.710938 273.480469 " fill-opacity="1" fill-rule="nonzero"/><path fill="#ff5b00" d="M 22.066406 279.582031 L 21.28125 276.65625 L 20.914062 275.171875 C 21.117188 275.949219 21.351562 276.773438 21.605469 277.648438 L 23.035156 282.945312 C 22.742188 281.9375 22.347656 280.59375 22.066406 279.582031 " fill-opacity="1" fill-rule="nonzero"/><path fill="#ff5b00" d="M 353.34375 147.796875 C 353.011719 146.789062 352.695312 145.816406 352.40625 144.882812 C 354.972656 147.753906 358.34375 151.644531 360.597656 154.761719 L 365.289062 162.703125 L 361.351562 157.089844 C 359 154.257812 355.210938 150.96875 353.34375 147.796875 " fill-opacity="1" fill-rule="nonzero"/><path fill="#ff5b00" d="M 329.386719 131.933594 C 328.617188 129.621094 327.898438 127.386719 327.230469 125.242188 C 330.628906 126.710938 335.148438 128.746094 338.351562 130.597656 C 341.746094 133.953125 346.253906 138.441406 349.519531 141.921875 C 349.863281 143.023438 350.234375 144.167969 350.628906 145.359375 C 348.003906 143.847656 344.453125 141.886719 341.636719 140.78125 C 337.984375 138.097656 332.097656 135.570312 329.386719 131.933594 " fill-opacity="1" fill-rule="nonzero"/><path fill="#ff5b00" d="M 298.421875 121.988281 C 297.269531 118.523438 296.1875 115.175781 295.191406 111.96875 C 299.210938 112.089844 304.589844 112.324219 308.574219 112.867188 C 313.03125 115.902344 318.957031 119.964844 323.332031 123.109375 C 324.050781 125.402344 324.824219 127.796875 325.644531 130.269531 C 322.199219 130.074219 317.582031 129.894531 314.140625 130.113281 C 309.4375 127.652344 301.890625 126.003906 298.421875 121.988281 " fill-opacity="1" fill-rule="nonzero"/><path fill="#ff5b00" d="M 262.078125 118.113281 C 260.609375 113.699219 259.234375 109.433594 257.953125 105.339844 C 262.425781 104.183594 268.40625 102.691406 272.957031 101.90625 C 278.242188 104.507812 285.28125 107.992188 290.511719 110.699219 C 291.550781 114.035156 292.675781 117.519531 293.871094 121.117188 C 289.8125 122.214844 284.414062 123.742188 280.460938 125.175781 C 274.957031 123.03125 267.609375 120.183594 262.078125 118.113281 " fill-opacity="1" fill-rule="nonzero"/><path fill="#ff5b00" d="M 221.984375 120.476562 C 220.28125 115.351562 218.679688 110.394531 217.199219 105.644531 C 221.945312 103.261719 228.296875 100.128906 233.179688 98.050781 C 239.054688 100.082031 246.882812 102.8125 252.714844 104.976562 C 254.019531 109.167969 255.433594 113.539062 256.9375 118.066406 C 252.46875 120.371094 246.539062 123.5 242.214844 126.066406 C 236.15625 124.355469 228.070312 122.085938 221.984375 120.476562 " fill-opacity="1" fill-rule="nonzero"/><path fill="#ff5b00" d="M 179.773438 129.234375 C 177.925781 123.675781 176.195312 118.304688 174.589844 113.152344 C 179.433594 109.617188 185.925781 104.9375 190.9375 101.640625 C 197.152344 102.953125 205.4375 104.730469 211.613281 106.21875 C 213.117188 111.039062 214.738281 116.066406 216.46875 121.265625 C 211.78125 124.679688 205.550781 129.269531 201.011719 132.882812 C 194.648438 131.734375 186.160156 130.230469 179.773438 129.234375 " fill-opacity="1" fill-rule="nonzero"/><path fill="#ff5b00" d="M 137.164062 144.507812 C 135.28125 138.84375 133.511719 133.367188 131.875 128.117188 C 136.625 123.523438 142.984375 117.421875 147.910156 113.015625 C 154.207031 113.441406 162.601562 114.046875 168.878906 114.710938 C 170.496094 119.890625 172.242188 125.296875 174.097656 130.886719 C 169.355469 135.285156 163.058594 141.175781 158.457031 145.71875 C 152.074219 145.292969 143.558594 144.75 137.164062 144.507812 " fill-opacity="1" fill-rule="nonzero"/><path fill="#ff5b00" d="M 67.234375 188.3125 C 65.609375 183.421875 64.085938 178.699219 62.675781 174.171875 C 65.734375 168.640625 69.84375 161.277344 73.078125 155.84375 C 77.886719 154.640625 84.316406 153.097656 89.191406 152.183594 C 90.742188 157.167969 92.417969 162.359375 94.207031 167.734375 C 90.703125 173.074219 86.054688 180.210938 82.6875 185.636719 C 78.035156 186.351562 71.835938 187.332031 67.234375 188.3125 " fill-opacity="1" fill-rule="nonzero"/><path fill="#ff5b00" d="M 43.3125 213.949219 C 41.957031 209.871094 40.683594 205.929688 39.503906 202.148438 C 41.597656 196.585938 44.417969 189.179688 46.675781 183.683594 C 50.355469 181.789062 55.296875 179.320312 59.125 177.746094 C 60.511719 182.191406 62.007812 186.824219 63.601562 191.621094 C 60.976562 196.945312 57.488281 204.058594 54.984375 209.445312 C 51.445312 210.691406 46.726562 212.390625 43.3125 213.949219 " fill-opacity="1" fill-rule="nonzero"/><path fill="#ff5b00" d="M 27.890625 240.507812 C 26.878906 237.460938 25.925781 234.515625 25.046875 231.695312 C 26.085938 226.367188 27.507812 219.273438 28.730469 213.984375 C 31.128906 211.488281 34.390625 208.203125 37.066406 206.003906 C 38.210938 209.667969 39.441406 213.488281 40.757812 217.445312 C 39.070312 222.492188 36.84375 229.226562 35.289062 234.316406 C 32.980469 236.066406 29.929688 238.453125 27.890625 240.507812 " fill-opacity="1" fill-rule="nonzero"/><path fill="#ff5b00" d="M 21.824219 266.820312 C 21.214844 264.988281 20.640625 263.214844 20.113281 261.515625 C 20.007812 256.683594 19.917969 250.234375 20.039062 245.398438 C 21.042969 242.429688 22.4375 238.472656 23.828125 235.664062 C 24.664062 238.34375 25.566406 241.144531 26.53125 244.039062 C 25.855469 248.5625 24.976562 254.597656 24.472656 259.144531 C 23.535156 261.394531 22.359375 264.445312 21.824219 266.820312 " fill-opacity="1" fill-rule="nonzero"/><path fill="#ff5b00" d="M 24.902344 288.847656 C 24.539062 287.746094 24.0625 286.273438 23.710938 285.164062 L 23.425781 284.238281 L 21.402344 276.570312 C 20.925781 273.242188 20.332031 268.789062 20.214844 265.429688 C 20.699219 266.96875 21.214844 268.570312 21.765625 270.234375 C 22.179688 274.019531 22.75 279.070312 23.414062 282.816406 C 23.851562 284.628906 24.320312 287.078125 24.902344 288.847656 " fill-opacity="1" fill-rule="nonzero"/><path fill="#ff5b00" d="M 362.933594 159.773438 C 362.816406 159.453125 362.707031 159.140625 362.597656 158.835938 L 365.289062 162.703125 L 362.933594 159.773438 " fill-opacity="1" fill-rule="nonzero"/><path fill="#ff5b00" d="M 345.828125 148.511719 C 345.167969 146.6875 344.539062 144.902344 343.9375 143.164062 C 346.582031 144.355469 350.09375 146.027344 352.527344 147.613281 C 355.003906 150.222656 358.296875 153.710938 360.640625 156.441406 C 360.8125 156.941406 360.996094 157.457031 361.1875 157.984375 C 359.40625 156.824219 356.976562 155.308594 354.988281 154.558594 C 352.253906 152.722656 347.882812 151.085938 345.828125 148.511719 " fill-opacity="1" fill-rule="nonzero"/><path fill="#ff5b00" d="M 320.625 142.339844 C 319.476562 139.164062 318.371094 136.046875 317.324219 133.019531 C 320.667969 132.882812 325.144531 132.765625 328.480469 133.054688 C 332.203125 135.558594 337.160156 138.914062 340.824219 141.496094 C 341.488281 143.417969 342.1875 145.386719 342.914062 147.398438 C 340.199219 147.539062 336.5625 147.8125 333.894531 148.347656 C 329.917969 146.539062 324.609375 144.128906 320.625 142.339844 " fill-opacity="1" fill-rule="nonzero"/><path fill="#ff5b00" d="M 288.863281 141.1875 C 287.296875 136.847656 285.789062 132.597656 284.359375 128.460938 C 288.253906 127.097656 293.472656 125.320312 297.472656 124.300781 C 302.222656 126.617188 308.558594 129.714844 313.28125 132.089844 C 314.382812 135.277344 315.542969 138.554688 316.753906 141.898438 C 313.328125 143.300781 308.777344 145.230469 305.480469 146.921875 C 300.5 145.195312 293.855469 142.898438 288.863281 141.1875 " fill-opacity="1" fill-rule="nonzero"/><path fill="#ff5b00" d="M 211.894531 153.65625 C 209.761719 147.757812 207.714844 141.980469 205.769531 136.355469 C 210.300781 132.796875 216.367188 128.074219 221.050781 124.714844 C 227.152344 126.304688 235.289062 128.441406 241.367188 130.121094 C 243.136719 135.238281 244.996094 140.492188 246.933594 145.855469 C 242.644531 149.402344 236.945312 154.167969 232.789062 157.871094 C 226.523438 156.585938 218.171875 154.878906 211.894531 153.65625 " fill-opacity="1" fill-rule="nonzero"/><path fill="#ff5b00" d="M 128.410156 184.824219 C 126.191406 178.691406 124.0625 172.679688 122.039062 166.828125 C 126.28125 161.679688 131.964844 154.832031 136.367188 149.820312 C 142.761719 150.125 151.289062 150.5625 157.671875 151.039062 C 159.722656 156.96875 161.878906 163.058594 164.128906 169.273438 C 159.625 174.316406 153.636719 181.0625 149.253906 186.207031 C 143.003906 185.757812 134.667969 185.171875 128.410156 184.824219 " fill-opacity="1" fill-rule="nonzero"/><path fill="#ff5b00" d="M 92.507812 204.675781 C 90.441406 198.96875 88.460938 193.375 86.578125 187.933594 C 90.046875 182.554688 94.691406 175.390625 98.289062 170.097656 C 103.890625 169.839844 111.359375 169.535156 116.964844 169.472656 C 118.976562 175.289062 121.089844 181.261719 123.296875 187.363281 C 119.453125 192.585938 114.339844 199.566406 110.597656 204.863281 C 105.171875 204.753906 97.933594 204.625 92.507812 204.675781 " fill-opacity="1" fill-rule="nonzero"/><path fill="#ff5b00" d="M 63.253906 225.640625 C 61.460938 220.671875 59.738281 215.8125 58.101562 211.078125 C 60.71875 205.738281 64.234375 198.632812 66.972656 193.351562 C 71.582031 192.535156 77.734375 191.488281 82.378906 190.910156 C 84.234375 196.277344 86.183594 201.789062 88.222656 207.414062 C 85.128906 212.535156 81.023438 219.367188 78.007812 224.53125 C 73.578125 224.789062 67.667969 225.164062 63.253906 225.640625 " fill-opacity="1" fill-rule="nonzero"/><path fill="#ff5b00" d="M 28.46875 267.132812 C 27.488281 264.417969 26.542969 261.753906 25.648438 259.167969 C 26.320312 254.675781 27.25 248.691406 28.074219 244.226562 C 30.183594 242.371094 33.054688 239.941406 35.398438 238.390625 C 36.652344 242.015625 37.972656 245.738281 39.34375 249.535156 C 37.976562 253.695312 36.15625 259.238281 34.871094 263.417969 C 32.890625 264.421875 30.246094 265.804688 28.46875 267.132812 " fill-opacity="1" fill-rule="nonzero"/><path fill="#ff5b00" d="M 24.800781 285.78125 C 24.328125 284.480469 23.875 283.203125 23.449219 281.960938 C 23 278.25 22.445312 273.292969 22.230469 269.5625 C 22.855469 267.335938 23.753906 264.355469 24.78125 262.285156 C 25.617188 264.707031 26.5 267.191406 27.417969 269.726562 C 27.015625 273.074219 26.492188 277.535156 26.238281 280.894531 C 25.660156 282.308594 24.964844 284.261719 24.800781 285.78125 " fill-opacity="1" fill-rule="nonzero"/><path fill="#ff5b00" d="M 26.210938 292.625 C 25.902344 291.75 25.492188 290.578125 25.191406 289.703125 L 23.925781 284.835938 C 24.292969 285.890625 24.675781 286.976562 25.074219 288.078125 C 25.53125 289.777344 26.023438 292.082031 26.617188 293.734375 L 26.210938 292.625 " fill-opacity="1" fill-rule="nonzero"/><path fill="#ff5b00" d="M 357.476562 159.230469 C 357.027344 158.066406 356.589844 156.917969 356.167969 155.78125 C 358 156.597656 360.429688 157.789062 362.027344 158.996094 L 365.289062 162.703125 L 363.074219 161.753906 C 361.390625 161 358.738281 160.570312 357.476562 159.230469 " fill-opacity="1" fill-rule="nonzero"/><path fill="#ff5b00" d="M 338.875 158.1875 C 337.84375 155.515625 336.84375 152.871094 335.871094 150.269531 C 338.46875 149.785156 341.953125 149.191406 344.589844 149.117188 C 347.40625 150.800781 351.164062 153.046875 353.957031 154.773438 C 354.457031 156.113281 354.972656 157.46875 355.5 158.839844 C 353.558594 159.417969 350.980469 160.28125 349.160156 161.175781 C 346.070312 160.300781 341.949219 159.121094 338.875 158.1875 " fill-opacity="1" fill-rule="nonzero"/><path fill="#ff5b00" d="M 312.628906 161.289062 C 311.085938 157.289062 309.582031 153.332031 308.132812 149.433594 C 311.382812 147.777344 315.746094 145.59375 319.136719 144.230469 C 323.167969 145.929688 328.550781 148.191406 332.585938 149.890625 C 333.621094 152.675781 334.699219 155.507812 335.800781 158.363281 C 333.070312 160.171875 329.460938 162.632812 326.875 164.644531 C 322.597656 163.664062 316.894531 162.335938 312.628906 161.289062 " fill-opacity="1" fill-rule="nonzero"/><path fill="#ff5b00" d="M 280.1875 168.226562 C 278.21875 163.128906 276.304688 158.078125 274.457031 153.113281 C 278.230469 150.375 283.28125 146.75 287.203125 144.226562 C 292.234375 145.859375 298.941406 148.035156 303.96875 149.664062 C 305.480469 153.71875 307.039062 157.839844 308.644531 161.996094 C 305.300781 164.875 300.863281 168.746094 297.652344 171.773438 C 292.410156 170.726562 285.421875 169.320312 280.1875 168.226562 " fill-opacity="1" fill-rule="nonzero"/><path fill="#ff5b00" d="M 243.019531 178.675781 C 240.734375 172.753906 238.511719 166.894531 236.363281 161.125 C 240.503906 157.433594 246.050781 152.535156 250.332031 149.003906 C 256.121094 150.476562 263.839844 152.4375 269.621094 153.929688 C 271.519531 159.019531 273.480469 164.195312 275.496094 169.414062 C 271.679688 173.203125 266.617188 178.277344 262.910156 182.171875 C 256.945312 181.128906 248.984375 179.734375 243.019531 178.675781 " fill-opacity="1" fill-rule="nonzero"/><path fill="#ff5b00" d="M 160.40625 208.820312 C 157.882812 202.277344 155.429688 195.800781 153.054688 189.421875 C 157.480469 184.3125 163.40625 177.515625 167.929688 172.492188 C 174.488281 173.273438 183.234375 174.328125 189.78125 175.21875 C 192.125 181.511719 194.550781 187.902344 197.042969 194.359375 C 192.695312 199.398438 186.910156 206.121094 182.613281 211.203125 C 175.953125 210.472656 167.074219 209.507812 160.40625 208.820312 " fill-opacity="1" fill-rule="nonzero"/><path fill="#ff5b00" d="M 87.289062 243.792969 C 85.109375 238.148438 82.992188 232.5625 80.945312 227.0625 C 84.027344 221.9375 88.160156 215.113281 91.316406 210.03125 C 96.707031 210.074219 103.894531 210.160156 109.28125 210.347656 C 111.535156 216.398438 113.863281 222.546875 116.261719 228.75 C 112.78125 233.710938 108.144531 240.324219 104.695312 245.300781 C 99.476562 244.816406 92.515625 244.175781 87.289062 243.792969 " fill-opacity="1" fill-rule="nonzero"/><path fill="#ff5b00" d="M 60.050781 260.253906 C 58.230469 255.542969 56.460938 250.878906 54.753906 246.285156 C 57.039062 241.550781 60.101562 235.242188 62.445312 230.535156 C 66.820312 230.191406 72.660156 229.777344 77.046875 229.632812 C 79.058594 235.027344 81.136719 240.511719 83.273438 246.046875 C 80.496094 250.542969 76.785156 256.53125 74.011719 261.03125 C 69.828125 260.746094 64.242188 260.386719 60.050781 260.253906 " fill-opacity="1" fill-rule="nonzero"/><path fill="#ff5b00" d="M 40.394531 275.097656 C 39.035156 271.578125 37.710938 268.09375 36.4375 264.667969 C 37.832031 260.542969 39.710938 255.058594 41.179688 250.957031 C 44.359375 250.214844 48.617188 249.28125 51.847656 248.792969 C 53.503906 253.242188 55.21875 257.765625 56.980469 262.332031 C 54.980469 266.140625 52.3125 271.21875 50.304688 275.027344 C 47.332031 274.980469 43.363281 274.941406 40.394531 275.097656 " fill-opacity="1" fill-rule="nonzero"/><path fill="#ff5b00" d="M 29.34375 287.632812 C 28.527344 285.515625 27.734375 283.421875 26.964844 281.355469 C 27.363281 278.0625 27.929688 273.671875 28.453125 270.394531 C 30.246094 269.261719 32.695312 267.8125 34.648438 266.996094 C 35.863281 270.253906 37.117188 273.566406 38.40625 276.910156 C 37.269531 279.832031 35.75 283.734375 34.625 286.667969 C 33.027344 286.871094 30.882812 287.144531 29.34375 287.632812 " fill-opacity="1" fill-rule="nonzero"/><path fill="#ff5b00" d="M 27.777344 296.8125 L 27.277344 295.507812 L 26.851562 294.371094 C 26.324219 292.449219 25.578125 289.890625 25.226562 287.929688 C 25.441406 286.539062 25.785156 284.652344 26.425781 283.398438 C 27.121094 285.269531 27.839844 287.167969 28.582031 289.085938 C 28.371094 290.953125 28.097656 293.449219 28.027344 295.324219 C 27.871094 295.746094 27.65625 296.375 27.777344 296.8125 " fill-opacity="1" fill-rule="nonzero"/><path fill="#ff5b00" d="M 364.28125 163.265625 C 364.140625 162.925781 364.003906 162.582031 363.867188 162.238281 L 365.289062 162.703125 L 364.28125 163.265625 " fill-opacity="1" fill-rule="nonzero"/><path fill="#ff5b00" d="M 353.507812 168.378906 C 352.707031 166.425781 351.921875 164.476562 351.152344 162.535156 C 352.875 161.675781 355.203125 160.535156 357.054688 160.007812 C 358.75 160.628906 361.011719 161.464844 362.722656 162.035156 C 362.945312 162.59375 363.171875 163.160156 363.40625 163.722656 C 362.371094 164.84375 361.03125 166.382812 360.117188 167.601562 C 358.144531 167.929688 355.5 168.289062 353.507812 168.378906 " fill-opacity="1" fill-rule="nonzero"/><path fill="#ff5b00" d="M 307.140625 188.488281 C 305.242188 183.84375 303.371094 179.199219 301.539062 174.582031 C 304.695312 171.554688 308.917969 167.53125 312.210938 164.648438 C 316.496094 165.570312 322.214844 166.792969 326.519531 167.632812 C 327.929688 171.191406 329.371094 174.769531 330.835938 178.347656 C 328.203125 181.628906 324.707031 186.015625 322.167969 189.371094 C 317.660156 189.160156 311.644531 188.847656 307.140625 188.488281 " fill-opacity="1" fill-rule="nonzero"/><path fill="#ff5b00" d="M 274.269531 202.335938 C 271.960938 196.707031 269.695312 191.078125 267.472656 185.476562 C 271.132812 181.582031 276.027344 176.398438 279.796875 172.609375 C 285.046875 173.605469 292.050781 174.921875 297.316406 175.859375 C 299.203125 180.625 301.132812 185.410156 303.097656 190.203125 C 299.863281 194.300781 295.570312 199.777344 292.417969 203.9375 C 286.96875 203.496094 279.707031 202.886719 274.269531 202.335938 " fill-opacity="1" fill-rule="nonzero"/><path fill="#ff5b00" d="M 116.550781 266.894531 C 114.046875 260.785156 111.585938 254.679688 109.179688 248.601562 C 112.699219 243.644531 117.394531 237.042969 120.9375 232.105469 C 126.992188 232.75 135.066406 233.613281 141.113281 234.300781 C 143.683594 240.789062 146.3125 247.316406 148.988281 253.847656 C 145.167969 258.722656 140.074219 265.226562 136.246094 270.097656 C 130.335938 269.136719 122.457031 267.851562 116.550781 266.894531 " fill-opacity="1" fill-rule="nonzero"/><path fill="#ff5b00" d="M 58.246094 289.84375 C 56.511719 285.617188 54.808594 281.386719 53.140625 277.183594 C 55.25 273.417969 58.054688 268.402344 60.148438 264.632812 C 64.328125 264.917969 69.902344 265.320312 74.074219 265.734375 C 76.121094 270.890625 78.207031 276.074219 80.328125 281.261719 C 77.722656 284.78125 74.234375 289.464844 71.550781 292.929688 C 67.566406 291.988281 62.246094 290.730469 58.246094 289.84375 " fill-opacity="1" fill-rule="nonzero"/><path fill="#ff5b00" d="M 39.910156 296.738281 C 38.71875 293.832031 37.546875 290.925781 36.402344 288.035156 C 37.65625 285.164062 39.324219 281.332031 40.578125 278.457031 C 43.539062 278.488281 47.488281 278.578125 50.445312 278.777344 C 52.046875 282.820312 53.683594 286.886719 55.351562 290.953125 C 53.484375 293.519531 50.988281 296.933594 49.027344 299.429688 C 46.296875 298.601562 42.65625 297.503906 39.910156 296.738281 " fill-opacity="1" fill-rule="nonzero"/><path fill="#ff5b00" d="M 30.289062 299.992188 C 29.71875 298.597656 29.15625 297.203125 28.605469 295.816406 C 28.871094 293.996094 29.257812 291.578125 29.613281 289.777344 C 31.164062 289.53125 33.257812 289.277344 34.828125 289.257812 C 35.898438 291.957031 36.996094 294.671875 38.109375 297.390625 C 37.089844 298.84375 35.730469 300.789062 34.601562 302.160156 C 33.308594 301.515625 31.273438 301.058594 30.289062 299.992188 " fill-opacity="1" fill-rule="nonzero"/><path fill="#ff5b00" d="M 29.339844 300.714844 C 28.640625 299.011719 28.640625 299.011719 28.300781 298.152344 L 28.023438 297.441406 C 28.070312 297.203125 28.140625 296.886719 28.191406 296.648438 L 28.304688 296.585938 C 28.769531 297.761719 29.246094 298.945312 29.730469 300.125 C 29.636719 300.355469 29.621094 300.757812 29.40625 300.878906 L 29.339844 300.714844 " fill-opacity="1" fill-rule="nonzero"/><path fill="#ff5b00" d="M 362.492188 171.484375 C 361.992188 170.320312 361.488281 169.140625 360.992188 167.964844 C 361.835938 166.703125 362.953125 165.011719 363.914062 163.839844 L 365.289062 162.703125 L 365.113281 166.652344 C 364.472656 168.175781 363.535156 170.203125 362.492188 171.484375 " fill-opacity="1" fill-rule="nonzero"/><path fill="#ff5b00" d="M 350.398438 186.320312 C 349.238281 183.644531 348.089844 180.945312 346.953125 178.238281 C 348.679688 175.828125 350.996094 172.621094 352.832031 170.296875 C 354.890625 170.039062 357.644531 169.679688 359.648438 169.140625 C 360.234375 170.53125 360.824219 171.917969 361.417969 173.292969 C 360.417969 176.082031 359.082031 179.808594 358.082031 182.601562 C 355.835938 183.835938 352.789062 185.410156 350.398438 186.320312 " fill-opacity="1" fill-rule="nonzero"/><path fill="#ff5b00" d="M 329.878906 203.414062 C 328.144531 199.410156 326.421875 195.367188 324.71875 191.3125 C 327.199219 187.921875 330.519531 183.410156 333.097656 180.089844 C 336.5 180.078125 341.046875 180.046875 344.441406 179.828125 C 345.660156 182.726562 346.890625 185.613281 348.132812 188.476562 C 346.273438 192.207031 343.808594 197.179688 341.984375 200.925781 C 338.371094 201.769531 333.539062 202.835938 329.878906 203.414062 " fill-opacity="1" fill-rule="nonzero"/><path fill="#ff5b00" d="M 148.140625 292.484375 C 145.417969 286.207031 142.71875 279.867188 140.050781 273.503906 C 143.90625 268.640625 149.050781 262.15625 152.902344 257.289062 C 159.421875 258.167969 168.121094 259.332031 174.652344 260.164062 C 177.429688 266.789062 180.242188 273.382812 183.078125 279.921875 C 179.015625 284.8125 173.59375 291.328125 169.484375 296.183594 C 163.078125 295.101562 154.535156 293.648438 148.140625 292.484375 " fill-opacity="1" fill-rule="nonzero"/><path fill="#ff5b00" d="M 111.640625 303.257812 C 109.191406 297.605469 106.761719 291.902344 104.359375 286.175781 C 107.699219 281.929688 112.140625 276.261719 115.4375 271.984375 C 121.316406 272.996094 129.152344 274.347656 135.03125 275.359375 C 137.671875 281.65625 140.347656 287.929688 143.042969 294.144531 C 139.394531 298.320312 134.519531 303.878906 130.789062 307.984375 C 125.042969 306.582031 117.378906 304.703125 111.640625 303.257812 " fill-opacity="1" fill-rule="nonzero"/><path fill="#ff5b00" d="M 80.375 309.882812 C 78.328125 305.164062 76.300781 300.40625 74.296875 295.625 C 77.023438 292.1875 80.644531 287.59375 83.304688 284.097656 C 88.320312 285.144531 95.007812 286.546875 100.015625 287.621094 C 102.375 293.238281 104.757812 298.835938 107.164062 304.378906 C 104.023438 307.671875 99.828125 312.046875 96.578125 315.226562 C 91.710938 313.632812 85.226562 311.5 80.375 309.882812 " fill-opacity="1" fill-rule="nonzero"/><path fill="#ff5b00" d="M 55.574219 312.171875 C 54.046875 308.644531 52.53125 305.089844 51.03125 301.519531 C 53.050781 299.0625 55.714844 295.761719 57.636719 293.230469 C 61.585938 294.230469 66.851562 295.574219 70.789062 296.621094 C 72.734375 301.25 74.699219 305.867188 76.683594 310.4375 C 74.160156 312.699219 70.777344 315.703125 68.109375 317.792969 C 64.34375 316.117188 58.460938 315.113281 55.574219 312.171875 " fill-opacity="1" fill-rule="nonzero"/><path fill="#ff5b00" d="M 38.480469 309.9375 C 37.558594 307.816406 36.648438 305.679688 35.75 303.53125 C 36.941406 302.199219 38.5 300.394531 39.582031 298.972656 C 42.269531 299.871094 45.847656 301.082031 48.519531 302.015625 C 49.945312 305.410156 51.386719 308.789062 52.835938 312.140625 C 51.035156 313.257812 48.613281 314.738281 46.664062 315.578125 C 44.191406 313.910156 40.347656 312.261719 38.480469 309.9375 " fill-opacity="1" fill-rule="nonzero"/><path fill="#ff5b00" d="M 30.625 303.75 L 30.441406 303.324219 C 30.199219 302.757812 29.875 302.003906 29.636719 301.4375 C 29.863281 301.335938 30.140625 301.121094 30.28125 300.914062 C 31.5 301.707031 33.132812 302.738281 34.378906 303.488281 C 35.195312 305.429688 36.023438 307.371094 36.855469 309.292969 C 35.824219 309.199219 34.394531 308.984375 33.5 308.464844 C 32.601562 307.070312 31.3125 305.257812 30.625 303.75 " fill-opacity="1" fill-rule="nonzero"/><path fill="#ff5b00" d="M 365.800781 166.761719 C 365.652344 166.441406 365.503906 166.113281 365.355469 165.78125 L 365.289062 162.703125 L 365.800781 166.761719 " fill-opacity="1" fill-rule="nonzero"/><path fill="#ff5b00" d="M 362.136719 188.257812 C 361.296875 186.433594 360.453125 184.570312 359.613281 182.683594 C 360.480469 179.828125 361.640625 176.023438 362.488281 173.160156 C 363.433594 171.652344 364.644531 169.5625 365.167969 167.859375 C 365.40625 168.402344 365.652344 168.9375 365.894531 169.46875 C 365.910156 172.75 365.894531 177.125 365.769531 180.40625 C 364.828125 182.824219 363.496094 186.046875 362.136719 188.257812 " fill-opacity="1" fill-rule="nonzero"/><g clip-path="url(#31e650ed82)"><path fill="#ff5b00" d="M 52.773438 326.367188 C 51.515625 323.648438 50.261719 320.875 49.007812 318.0625 C 51.027344 317.175781 53.695312 315.921875 55.570312 314.769531 C 59.316406 316.589844 64.3125 319.007812 68.078125 320.78125 C 69.828125 324.714844 71.585938 328.597656 73.34375 332.402344 C 70.769531 333.238281 67.308594 334.316406 64.640625 334.78125 C 61.054688 332.292969 55.527344 329.753906 52.773438 326.367188 " fill-opacity="1" fill-rule="nonzero"/></g><path fill="#ff5b00" d="M 36.464844 314.210938 C 35.859375 312.90625 35.257812 311.574219 34.65625 310.222656 C 35.75 310.675781 37.285156 311.210938 38.464844 311.222656 C 40.882812 313.082031 44.125 315.539062 46.609375 317.3125 C 47.777344 319.9375 48.953125 322.535156 50.125 325.070312 C 48.191406 324.613281 45.601562 323.917969 43.824219 323.039062 C 41.558594 320.4375 38.242188 317.164062 36.464844 314.210938 " fill-opacity="1" fill-rule="nonzero"/><path fill="#ff5b00" d="M 31.6875 306.140625 C 31.457031 305.625 31.152344 304.945312 30.925781 304.433594 C 31.664062 305.75 32.582031 307.550781 33.429688 308.800781 C 33.941406 309.945312 34.453125 311.074219 34.964844 312.183594 L 32.6875 308.324219 C 32.386719 307.667969 31.980469 306.792969 31.6875 306.140625 " fill-opacity="1" fill-rule="nonzero"/><path fill="#ff5b00" d="M 367.746094 182.863281 C 367.277344 181.914062 366.789062 180.910156 366.285156 179.847656 L 366.273438 179.820312 C 366.25 176.464844 366.203125 171.996094 366.011719 168.644531 L 365.289062 162.703125 L 367.1875 171.070312 C 367.496094 174.597656 367.859375 179.320312 367.746094 182.863281 " fill-opacity="1" fill-rule="nonzero"/><path fill="#ff5b00" d="M 367.21875 169.617188 C 367.101562 169.402344 366.976562 169.171875 366.847656 168.917969 L 365.289062 162.703125 L 367.21875 169.617188 " fill-opacity="1" fill-rule="nonzero"/><g clip-path="url(#97e64e68ba)"><path fill="#ff5b00" d="M 368.210938 171.195312 C 368.140625 171.109375 368.0625 171.003906 367.976562 170.878906 L 365.289062 162.703125 L 368.210938 171.195312 " fill-opacity="1" fill-rule="nonzero"/></g></svg>