<svg width="38" height="38" viewBox="0 0 38 38" fill="none" xmlns="http://www.w3.org/2000/svg">
<mask id="mask0_23_2391" style="mask-type:luminance" maskUnits="userSpaceOnUse" x="0" y="0" width="38" height="38">
<path d="M0 0H37.2139V37.2139H0V0Z" fill="white"/>
</mask>
<g mask="url(#mask0_23_2391)">
<path d="M37.2552 18.6281C37.2552 19.8016 35.0516 20.7435 34.8321 21.8526C34.6061 22.9954 36.2775 24.707 35.8415 25.7582C35.398 26.8285 33.0016 26.8547 32.3648 27.8052C31.7234 28.7632 32.612 30.9869 31.7994 31.7994C30.9869 32.612 28.7632 31.7234 27.8052 32.3648C26.8542 33.0016 26.828 35.398 25.7582 35.8415C24.7065 36.278 22.9954 34.6066 21.8526 34.8326C20.7435 35.0516 19.8011 37.2557 18.6276 37.2557C17.4541 37.2557 16.5121 35.0516 15.4031 34.8326C14.2603 34.6066 12.5486 36.278 11.4969 35.8415C10.4271 35.398 10.401 33.0016 9.45047 32.3648C8.49193 31.7234 6.26826 32.612 5.45622 31.7994C4.64368 30.9869 5.53224 28.7632 4.89036 27.8052C4.25402 26.8542 1.85767 26.828 1.41364 25.7582C0.97767 24.707 2.64907 22.9954 2.42303 21.8526C2.20404 20.7435 0 19.8016 0 18.6281C0 17.4546 2.20404 16.5121 2.42303 15.4031C2.64907 14.2603 0.97767 12.5491 1.41364 11.4974C1.85767 10.4271 4.25402 10.4015 4.89036 9.45047C5.53224 8.49243 4.64368 6.26876 5.45622 5.45622C6.26826 4.64368 8.49193 5.53224 9.45047 4.89087C10.4015 4.25402 10.4271 1.85767 11.4969 1.41415C12.5667 0.970622 14.2603 2.64958 15.4031 2.42353C16.5121 2.20404 17.4541 0 18.6276 0C19.8011 0 20.743 2.20404 21.8526 2.42353C22.9954 2.64958 24.7065 0.978173 25.7582 1.41415C26.828 1.85767 26.8542 4.25402 27.8052 4.89087C28.7632 5.53224 30.9869 4.64368 31.7994 5.45622C32.612 6.26876 31.7234 8.49243 32.3648 9.45047C33.0016 10.4015 35.398 10.4276 35.8415 11.4974C36.2775 12.5491 34.6061 14.2603 34.8321 15.4031C35.0516 16.5121 37.2552 17.4546 37.2552 18.6281Z" fill="#FF5B00"/>
</g>
<path d="M28.7865 19C27.4964 24.6875 23.7041 29.5365 18.3962 31.9761C18.3957 31.9761 18.3957 31.9761 18.3952 31.9766C18.3259 32.0078 18.2476 32.0078 18.1778 31.9766C18.1778 31.9766 18.1773 31.9761 18.1768 31.9761C12.8689 29.5365 9.07656 24.6875 7.7865 19H28.7865Z" fill="white"/>
<path d="M29.786 11.2892V12H7.7865V11.2892C7.7865 10.7321 8.12197 10.2313 8.63397 10.0233C11.8569 8.71378 15.0798 7.40427 18.3022 6.09475C18.613 5.96842 18.96 5.96842 19.2703 6.09475C22.4932 7.40427 25.7161 8.71378 28.9385 10.0233C29.451 10.2313 29.7865 10.7321 29.7865 11.2892H29.786Z" fill="white"/>
<path d="M23.7865 19L19.0659 25.7638C18.9754 25.8935 18.8317 25.9786 18.6721 25.9966C18.6512 25.999 18.6299 26 18.609 26C18.4708 26 18.337 25.9499 18.2341 25.8571L13.965 22.0149C13.7402 21.8126 13.7258 21.4704 13.9327 21.2502C14.1395 21.0305 14.4895 21.0164 14.7143 21.2186L18.5125 24.6369L22.4465 19H23.7865Z" fill="#FF5B00"/>
<path d="M5.73252 12H31.84C31.9021 12 31.9637 12.0062 32.0249 12.0185C32.086 12.0304 32.145 12.0484 32.202 12.0725C32.2596 12.0962 32.314 12.1255 32.3659 12.16C32.4177 12.1945 32.4655 12.2336 32.5092 12.2778C32.5533 12.3216 32.5924 12.3694 32.6268 12.4214C32.6617 12.4734 32.6905 12.5279 32.7146 12.5855C32.7382 12.6427 32.7562 12.7023 32.768 12.7631C32.7803 12.8243 32.7865 12.886 32.7865 12.9483V17.0517C32.7865 17.114 32.7803 17.1757 32.768 17.2369C32.7562 17.2977 32.7382 17.3568 32.7146 17.4145C32.6905 17.4721 32.6617 17.5266 32.6268 17.5786C32.5924 17.63 32.5533 17.6779 32.5092 17.7222C32.4655 17.7664 32.4177 17.8055 32.3659 17.84C32.314 17.8745 32.2596 17.9038 32.202 17.9275C32.145 17.9516 32.086 17.9696 32.0249 17.9815C31.9637 17.9938 31.9021 18 31.84 18H5.73252C5.67037 18 5.60926 17.9938 5.54814 17.9815C5.48703 17.9696 5.42796 17.9516 5.37044 17.9275C5.31343 17.9038 5.25848 17.8745 5.20712 17.84C5.15525 17.8055 5.10749 17.7664 5.06383 17.7222C5.01967 17.6779 4.98063 17.63 4.94622 17.5786C4.9113 17.5266 4.88254 17.4721 4.8584 17.4145C4.83478 17.3568 4.8168 17.2977 4.80447 17.2369C4.79266 17.1757 4.7865 17.114 4.7865 17.0517V12.9483C4.7865 12.886 4.79266 12.8243 4.80447 12.7631C4.8168 12.7023 4.83478 12.6427 4.8584 12.5855C4.88254 12.5279 4.9113 12.4734 4.94622 12.4214C4.98063 12.37 5.01967 12.3216 5.06383 12.2778C5.10749 12.2336 5.15525 12.1945 5.20712 12.16C5.25848 12.1255 5.31343 12.0962 5.37044 12.0725C5.42796 12.0484 5.48703 12.0304 5.54814 12.0185C5.60926 12.0062 5.67037 12 5.73252 12Z" fill="white"/>
<path d="M8.35371 16.989C8.22932 16.989 8.13474 16.9503 8.06946 16.8735C8.00418 16.7961 7.9718 16.688 7.9718 16.5488V13.7643H7.10518C7.00392 13.7643 6.92528 13.7331 6.86977 13.6707C6.81426 13.6083 6.7865 13.5217 6.7865 13.4119C6.7865 13.3021 6.81426 13.2109 6.86977 13.1502C6.92528 13.0901 7.00392 13.0595 7.10518 13.0595H9.59709C9.69835 13.0595 9.77648 13.0901 9.83199 13.1502C9.8875 13.2109 9.91526 13.2981 9.91526 13.4119C9.91526 13.5257 9.8875 13.6083 9.83199 13.6707C9.77648 13.7331 9.69835 13.7643 9.59709 13.7643H8.73047V16.5488C8.73047 16.688 8.6986 16.7961 8.63487 16.8735C8.57113 16.9503 8.47758 16.989 8.35319 16.989H8.35371ZM10.8209 16.989C10.6971 16.989 10.6025 16.9503 10.5372 16.8735C10.4719 16.7961 10.439 16.688 10.439 16.5488V13.4945C10.439 13.3512 10.4724 13.2432 10.5393 13.1698C10.6066 13.0965 10.7017 13.0601 10.8261 13.0601H12.0155C12.401 13.0601 12.6976 13.1646 12.9068 13.3732C13.1155 13.5823 13.2203 13.8741 13.2203 14.2484C13.2203 14.4905 13.1725 14.6996 13.0779 14.8758C12.9834 15.052 12.8472 15.1872 12.6693 15.2831C12.4915 15.3784 12.2735 15.4258 12.016 15.4258L12.0551 15.3322H12.256C12.3928 15.3322 12.513 15.3697 12.6158 15.4448C12.7187 15.5199 12.8076 15.6349 12.8826 15.7891L13.1859 16.4217C13.2316 16.5136 13.2527 16.6031 13.2496 16.6915C13.2465 16.7793 13.2167 16.851 13.1612 16.9058C13.1057 16.9613 13.0245 16.9884 12.9165 16.9884C12.8086 16.9884 12.7217 16.963 12.6544 16.9116C12.5876 16.8602 12.528 16.7811 12.476 16.6748L12.0057 15.7008C11.9569 15.5985 11.8973 15.5286 11.8274 15.4916C11.7569 15.4552 11.6711 15.4367 11.5704 15.4367H11.1982V16.5482C11.1982 16.688 11.1664 16.7961 11.1026 16.8729C11.0389 16.9503 10.9453 16.989 10.8209 16.989ZM11.1982 14.8209H11.8788C12.0808 14.8209 12.2334 14.7753 12.3362 14.6834C12.4395 14.5921 12.4904 14.4541 12.4904 14.2709C12.4904 14.0872 12.439 13.9555 12.3362 13.8637C12.2334 13.7718 12.0808 13.7262 11.8788 13.7262H11.1982V14.8215V14.8209ZM15.521 17C15.2763 17 15.06 16.9642 14.8723 16.8925C14.6847 16.8209 14.5269 16.7158 14.4 16.5765C14.2725 16.4367 14.1774 16.2617 14.1137 16.0508C14.0499 15.84 14.0181 15.595 14.0181 15.316V13.4454C14.0181 13.3021 14.0504 13.1941 14.1157 13.1207C14.181 13.0474 14.2756 13.0104 14.3995 13.0104C14.5238 13.0104 14.6133 13.0474 14.6786 13.1207C14.7438 13.1941 14.7767 13.3021 14.7767 13.4454V15.3218C14.7767 15.6372 14.8405 15.8746 14.9674 16.0341C15.0949 16.1935 15.2789 16.2738 15.5205 16.2738C15.7621 16.2738 15.9456 16.1935 16.0715 16.0341C16.1969 15.8746 16.2602 15.6372 16.2602 15.3218V13.4454C16.2602 13.3021 16.2925 13.1941 16.3578 13.1207C16.4231 13.0474 16.5161 13.0104 16.6369 13.0104C16.7577 13.0104 16.8502 13.0474 16.9135 13.1207C16.9772 13.1941 17.0091 13.3021 17.0091 13.4454V15.316C17.0091 15.6869 16.953 15.9977 16.8405 16.249C16.7279 16.5003 16.5614 16.688 16.3409 16.8128C16.1203 16.9376 15.8474 17 15.521 17ZM19.1098 17C18.9726 17 18.8333 16.9879 18.6909 16.9642C18.549 16.9405 18.4138 16.9064 18.2848 16.8625C18.1558 16.8186 18.0407 16.7637 17.9394 16.6979C17.8675 16.6534 17.8171 16.5956 17.7878 16.5246C17.7585 16.4529 17.7477 16.3801 17.7559 16.3068C17.7641 16.2334 17.7883 16.1687 17.8294 16.1115C17.87 16.0549 17.9225 16.0179 17.9857 16.0017C18.0494 15.985 18.1203 15.9988 18.199 16.0427C18.3326 16.1277 18.4786 16.1895 18.6369 16.2299C18.7952 16.2704 18.953 16.2906 19.1098 16.2906C19.3478 16.2906 19.5174 16.249 19.6187 16.1664C19.7199 16.0843 19.7703 15.9804 19.7703 15.8556C19.7703 15.7493 19.7343 15.6649 19.6629 15.6025C19.5909 15.5402 19.4655 15.487 19.2861 15.4431L18.7325 15.3108C18.4195 15.2374 18.1867 15.1121 18.035 14.9341C17.8834 14.7562 17.8073 14.5222 17.8073 14.2322C17.8073 14.0491 17.8418 13.8821 17.9101 13.7319C17.9785 13.5812 18.0751 13.4512 18.199 13.3408C18.3229 13.2311 18.4709 13.1467 18.6421 13.0878C18.8137 13.0295 19.0019 13 19.2075 13C19.3905 13 19.5698 13.0248 19.7462 13.0739C19.9225 13.1236 20.0777 13.1958 20.2113 13.2912C20.2766 13.3356 20.3213 13.3911 20.346 13.4593C20.3702 13.5269 20.3784 13.595 20.3702 13.6626C20.3624 13.7308 20.3378 13.7903 20.2972 13.8417C20.256 13.8931 20.2046 13.9261 20.143 13.9405C20.0808 13.9555 20.0057 13.9388 19.9173 13.8908C19.8099 13.829 19.6958 13.7828 19.575 13.7533C19.4542 13.7244 19.3298 13.7094 19.2028 13.7094C19.0656 13.7094 18.9489 13.7296 18.8528 13.7701C18.7567 13.8105 18.6827 13.8671 18.6323 13.9405C18.5814 14.0139 18.5562 14.0982 18.5562 14.1935C18.5562 14.3004 18.5907 14.3865 18.659 14.4523C18.7279 14.5188 18.8472 14.5719 19.0168 14.6118L19.5698 14.7441C19.8901 14.8209 20.1281 14.9445 20.2848 15.1155C20.4416 15.286 20.5197 15.5107 20.5197 15.7897C20.5197 15.9728 20.4868 16.1386 20.4216 16.2877C20.3563 16.4362 20.2617 16.5633 20.1378 16.6701C20.0139 16.7764 19.8654 16.8579 19.6927 16.9145C19.5195 16.9717 19.3252 17 19.1098 17ZM22.3409 16.989C22.217 16.989 22.1224 16.9509 22.0571 16.8735C21.9918 16.7966 21.9589 16.688 21.9589 16.5488V13.7643H21.0923C20.9916 13.7643 20.9129 13.7331 20.8574 13.6707C20.8019 13.6083 20.7742 13.5222 20.7742 13.4119C20.7742 13.3021 20.8019 13.2114 20.8574 13.1508C20.9129 13.0901 20.9916 13.0601 21.0923 13.0601H23.5848C23.6855 13.0601 23.7641 13.0901 23.8197 13.1508C23.8747 13.2109 23.9029 13.2987 23.9029 13.4119C23.9029 13.5257 23.8752 13.6083 23.8197 13.6707C23.7636 13.7331 23.6855 13.7643 23.5848 13.7643H22.7181V16.5488C22.7181 16.688 22.6863 16.7966 22.6225 16.8735C22.5588 16.9503 22.4647 16.989 22.3409 16.989ZM24.823 16.9393C24.6955 16.9393 24.5979 16.9012 24.5295 16.8238C24.4606 16.747 24.4267 16.6372 24.4267 16.4939V13.5061C24.4267 13.3628 24.4606 13.253 24.5295 13.1756C24.5979 13.0988 24.6955 13.0601 24.823 13.0601H26.5321C26.6297 13.0601 26.7043 13.0884 26.7546 13.1456C26.805 13.2022 26.8307 13.2837 26.8307 13.3905C26.8307 13.4968 26.805 13.5835 26.7546 13.6407C26.7043 13.6979 26.6297 13.7262 26.5321 13.7262H25.1514V14.6337H26.419C26.5202 14.6337 26.5963 14.662 26.6472 14.7192C26.6976 14.7759 26.7228 14.8596 26.7228 14.9694C26.7228 15.0791 26.6976 15.1629 26.6472 15.2195C26.5963 15.2767 26.5208 15.305 26.419 15.305H25.1514V16.2738H26.5321C26.6297 16.2738 26.7043 16.3021 26.7546 16.3588C26.805 16.4159 26.8307 16.4974 26.8307 16.6037C26.8307 16.71 26.805 16.7972 26.7546 16.8538C26.7043 16.911 26.6297 16.9393 26.5321 16.9393H24.823ZM27.9811 16.9393C27.8536 16.9393 27.7559 16.9012 27.687 16.8238C27.6187 16.747 27.5842 16.6372 27.5842 16.4939V13.5061C27.5842 13.3628 27.6187 13.253 27.687 13.1756C27.7559 13.0988 27.8536 13.0601 27.9811 13.0601H28.9356C29.5267 13.0601 29.9826 13.2276 30.3038 13.5633C30.6256 13.8989 30.7865 14.3772 30.7865 14.9971C30.7865 15.3085 30.7449 15.5846 30.6616 15.825C30.5783 16.0653 30.4586 16.2681 30.3018 16.4333C30.145 16.5979 29.9523 16.7239 29.724 16.8099C29.4958 16.8966 29.2327 16.9393 28.9356 16.9393H27.9811ZM28.3434 16.2409H28.8919C29.0774 16.2409 29.2393 16.2149 29.3761 16.1641C29.5133 16.1127 29.6274 16.0352 29.7189 15.9324C29.8104 15.8302 29.8788 15.7008 29.9245 15.5448C29.9703 15.3888 29.9934 15.2062 29.9934 14.9971C29.9934 14.5789 29.9009 14.2681 29.7163 14.0641C29.5323 13.8608 29.2568 13.7591 28.8914 13.7591H28.3429V16.2409H28.3434Z" fill="#FF5B00"/>
</svg>
